<?xml version="1.0" standalone="no"?>
<!DOCTYPE svg PUBLIC "-//W3C//DTD SVG 20010904//EN"
 "http://www.w3.org/TR/2001/REC-SVG-20010904/DTD/svg10.dtd">
<svg version="1.0" xmlns="http://www.w3.org/2000/svg"
 width="450.000000pt" height="450.000000pt" viewBox="0 0 450.000000 450.000000"
 preserveAspectRatio="xMidYMid meet">
<metadata>
Created by potrace 1.11, written by Peter Selinger 2001-2013
</metadata>
<g transform="translate(0.000000,450.000000) scale(0.100000,-0.100000)"
fill="#000000" stroke="none">
<path d="M2098 4075 c-2 -1 -28 -5 -58 -8 -305 -33 -630 -166 -895 -366 -288
-218 -519 -540 -634 -887 -22 -65 -43 -134 -46 -153 -3 -19 -7 -37 -9 -40 -4
-6 -11 -45 -27 -156 -11 -77 -14 -419 -5 -475 4 -19 11 -62 17 -95 15 -92 57
-240 94 -337 231 -598 746 -1032 1377 -1160 100 -20 142 -23 358 -23 216 0
258 3 358 23 372 75 721 266 978 533 239 251 386 521 470 864 37 155 43 209
45 420 1 239 -21 387 -91 598 -155 466 -492 852 -936 1075 -156 78 -372 147
-524 168 -25 3 -67 10 -94 14 -45 7 -370 12 -378 5z m372 -760 c105 -21 231
-67 333 -122 113 -62 215 -145 315 -257 40 -44 132 -186 132 -203 0 -6 4 -13
8 -15 12 -5 68 -154 86 -228 24 -101 33 -180 30 -287 -2 -122 -8 -165 -41
-279 l-25 -92 -52 -7 c-105 -14 -152 -46 -239 -169 -61 -86 -102 -104 -195
-85 -69 14 -108 53 -118 116 -8 54 1 157 21 238 23 98 20 142 -14 176 -46 46
-131 37 -166 -18 -20 -29 -20 -69 -3 -158 43 -212 -22 -359 -174 -395 -66 -16
-183 -7 -241 18 -45 20 -68 41 -243 222 -51 52 -118 110 -149 129 -112 68
-225 44 -395 -82 l-75 -55 -18 40 c-104 241 -108 566 -8 824 85 219 277 447
466 550 11 6 36 20 55 31 84 47 232 95 335 109 28 3 52 8 54 10 7 6 281 -3
321 -11z"/>
<path d="M2568 2795 c-86 -23 -154 -91 -181 -182 -18 -61 -12 -135 16 -189 63
-121 218 -177 338 -122 140 64 198 216 136 352 -25 54 -88 116 -139 135 -44
17 -120 19 -170 6z"/>
<path d="M1558 2242 c-31 -18 -58 -67 -58 -104 0 -35 37 -88 72 -102 71 -30
158 27 158 105 0 49 -24 88 -67 105 -43 18 -72 17 -105 -4z"/>
</g>
</svg>
